# xmcd
#
# Track frame offsets:
#	150
#	12932
#	24709
#	37320
#	50163
#	62043
#	76193
#	86445
#	97253
#	110520
#	123058
#	135438
#	147588
#	158978
#	170738
#	184278
#	203894
#	215964
#
# Disc length: 3032 seconds
#
# Revision: 4
# Processed by: cddbd v1.4PL0 Copyright (c) Steve Scherf et al.
# Submitted via: audiograbber 1.81.03
#
DISCID=110bd612
DTITLE=Various Artist - How Long, How Long Blues - CD 4
DYEAR=2001
DGENRE=Blues
TTITLE0=Wynonie Harris - You Get Yourself A Job
TTITLE1=Joe Turner With Pete Johnson - Low Down Dog
TTITLE2=Lowell Fulson - Fulson Boogie
TTITLE3=Saunders King - Swingin'
TTITLE4=Wynonie Harris - Wynonie's Boogie
TTITLE5=Paul Gayten - Gayten's Nightmare
TTITLE6=Joe Turner - Don't Dig It
TTITLE7=Pearl Bailey and J. Moms Mabley - Saturday Night Fish Fry
TTITLE8=Gatemouth Moore - I Ain't Mad At You
TTITLE9=Joe Turner - Hollywood Bed
TTITLE10=Carl Davis - In The Dozens
TTITLE11=Dee Williams - Bongo Blues
TTITLE12=Paul Gayten - Hey Little girl
TTITLE13=Joe Turner - Ooo-Ouch-Stop
TTITLE14=Annisteen Allen - Give It Up
TTITLE15=Louis Jordan - Saturday Night Fish Fry
TTITLE16=Helen Humes - Central Avenue Boogie
TTITLE17=Cecil Gant - Cecil's Jamsession
EXTD=ID3G:   0
EXTT0=
EXTT1=
EXTT2=
EXTT3=
EXTT4=
EXTT5=
EXTT6=
EXTT7=
EXTT8=
EXTT9=
EXTT10=
EXTT11=
EXTT12=
EXTT13=
EXTT14=
EXTT15=
EXTT16=
EXTT17=
PLAYORDER=
